<svg xmlns="http://www.w3.org/2000/svg" viewBox="0 0 512 512"><circle cx="256" cy="256" r="240" fill="#000"/><path fill="#fff" d="M256 320c35.3 0 64-28.7 64-64V128c0-35.3-28.7-64-64-64s-64 28.7-64 64v128c0 35.3 28.7 64 64 64z"/><path fill="#fff" d="M352 256c0 53-43 96-96 96s-96-43-96-96h-32c0 66.4 50.8 121 116 127v49h-44c-8.8 0-16 7.2-16 16s7.2 16 16 16h120c8.8 0 16-7.2 16-16s-7.2-16-16-16h-44v-49c65.2-6 116-60.6 116-127h-32z"/><path fill="#fff" d="M420 200c0-8.8-7.2-16-16-16s-16 7.2-16 16c0 72.8-59.2 132-132 132s-132-59.2-132-132c0-8.8-7.2-16-16-16s-16 7.2-16 16c0 86.3 66.7 157.3 152 164v36h-44c-8.8 0-16 7.2-16 16s7.2 16 16 16h120c8.8 0 16-7.2 16-16s-7.2-16-16-16h-44v-36c85.3-6.7 152-77.7 152-164z" opacity=".3"/></svg>